<svg xmlns="http://www.w3.org/2000/svg" xmlns:xlink="http://www.w3.org/1999/xlink" viewBox="0 0 258 101" fill="#fff" fill-rule="evenodd" stroke="#000" stroke-linecap="round" stroke-linejoin="round"><use xlink:href="#A" x=".5" y=".5"/><symbol id="A" overflow="visible"><g stroke="none" fill="#000" fill-rule="nonzero"><path d="M33.494 89.03c-4.27-3.358-8.824-6.578-11.937-11.112-6.549-7.996-11.591-17.252-15.039-26.98-2.084-6.332-2.797-13.107-5.483-19.188-2.81-4.417.481-9.245 5.32-10.649 2.154-.413 5.941-2.445 1.37-.993-4.104 3.008-4.495-2.73-.293-3.093 2.868-.381 3.924-2.729 2.943-4.843-3.078-2.008 7.466-4.214 2.16-7.21-5.527-5.963 7.731-7.112 4.46-.339-.783 5.208 9.264-.954 6.933 5.06 2.369 2.888 8.873.657 8.711 4.708 3.452.238 4.637 3.142 7.877 3.364 3.358 1.517 9.44 2.712 10.589 6.496-3.331 2.638-11.046-5.449-11.417 1.853 1.007 10.786.75 21.896 4.69 32.168 1.867 6.22 6.391 11.115 10.477 15.959 3.911 4.749 9.206 8.084 14.599 10.895 4.735 2.228 9.841 3.714 15.001 4.644 2.093-1.601 5.789-7.553 9.054-5.044.155 2.814-6.481 5.895-.312 5.584 3.622-1.093 6.135 2.801 9.117-.711 2.748 3.255 11.422-2.08 9.467 4.573-2.638 1.7-6.5.674-9.149 3.022-4.367-2.181-7.843 1.951-12.677 1.429-5.368.962-10.83 1.35-16.273 1.358-8.929-.705-18.048-.997-26.542-4.112-4.785-1.391-9.455-4.116-13.661-6.841zm7.541 3.268c4.673 2.021 9.241 4.151 14.363 4.793 8.124 1.13 16.515 2.868 24.668 1.283-3.69-1.666-7.505.649-11.181-1.191-4.409.949-9.146-.242-13.624-.828-5.097-2.271-10.598-3.832-15.372-6.779-5.965-2.179 3.084 2.794 4.691 3.197 3.729 2.111-4.1-1.085-5.204-1.964-3.123-1.752-3.521-1.386-.309.393.647.379 1.286.775 1.964 1.098zm-8.891-6.278c4.528 1.677-.02-3.184-2.095-2.902-.919-1.595-3.518-2.603-1.683-3.459-3.29 1.142-3.446-4.343-4.993-3.559-3.481-1.099-1.349-4.992-5.501-7.383-.378-2.519-4.119-4.705-5.312-8.504-.528-1.945-4.226-7.533-1.953-2.334 1.935 5.005 5.34 9.293 8.173 13.574 2.2 4.077 4.797 8.337 8.804 10.881 1.35 1.29 2.654 3.28 4.562 3.687zM19.1 71.698c.158-.684.828 1.48 0 0zm18.472 16.332c.997-.449-1.442-.566 0 0zm2.458.897c-.255-1.238-1.122.692 0 0zm3.076 1.29c1.465-1.395-2.257-.88 0 0zm5.273 2.939c.89-1.316-2.849-.497 0 0zm-10.131-7.079c2.275-1.466-2.939-.02 0 0zm2.308 1.151c-.059-.778-.823.348 0 0zm11.536 7.2c1.855 1.17 10.829 2.565 5.209.48-.94.198-10.42-2.681-5.209-.48zM33.779 80.172c-.181-.78-2.873-.862 0 0zm5.371 3.13c1.398-.975-2.901-.752 0 0zm4.517 2.77c2.005-.762-3.254-.76 0 0zm-12.078-8.279c2.169 1.669 8.776.214 3.332-.997-2.478-1.32-8.062-2.225-4.255.796l.923.199zm15.127 9.236c.906-1.544-3.801-.882 0 0zm-4.598-3.654c5.321 1.505-4.473-3.365-1.313-.554l.701.317.612.237zm9.219 5.328c5.039.048-4.552-.695 0 0zM29.657 74.877c-.197-.938-1.243.079 0 0zm30.215 18.606c.135-1.7-1.645 1.262 0 0zm-21.616-13.34c-.305-.893-1.574-.036 0 0zm-8.122-5.855c2.893-.174-3.96-1.275 0 0zm-9.615-6.219c-.36-1.387-3.149-2.493 0 0zm25.258 16.03c-.53-.604-.249.132 0 0zm15.721 9.648c-.05-.923-.856.349 0 0zM44.386 82.663c.283-1.19-2.467-.36 0 0zM32.674 75.24c2.152-.23-3.448-1.455 0 0zm19.817 12.311c3.354-1.329-3.269-.648 0 0zm-10.306-6.995c3.866.498-4.599-2.629-.848-.28l.848.28zm13.434 8.267c3.609-2.158 2.419 5.052 6.123.61 3.653-2.668-3.154 3.298 1.347.469 3.256-2.178 8.065 1.032 11.103 2.08 2.185-.107 4.309 1.889 6.549.674 4.312-1.161-8.431-1.723-5.091-3.783-3.946 1.148-6.86-1.369-8.802-3.896-4.426-1.022-9.542-3.284-11.751-7.201-.901-1.47 1.302.207-.778-2.196-2.666-2.372-3.999-5.065-5.789-7.947-2.139-1.141-2.387-4.499-2.603-.113.018-2.769-2.582-4.632-3.217-3.858-.012-2.666 2.782-1.33.821-3.302-.421-2.763-1.806-5.643-2.228-8.762-.647-1.504-.091-4.726-2.209-1.32-.771 3.598-.256-4.421.938-1.776 1.574-2.699-.565-2.38-.653-2.006 1.026-2.277.649-5.507-.267-4.28.547-2.413.864-8.881-.818-7.735 1.019-2.523 1.933-11.547-2.492-8.106-1.793.025-4.899.645-6.366 1.381 4.603 2.537-.469.916-2.336.513-.244 2.348-2.099 1.332-4.418 1.349 3.703.457-1.803 3.787-3.927 2.494-2.759 1.319 2.38 4.61.055 5.627.285 1.534-4.226-.554-3.872 2.989-2.678-1.127-.369 4.203.971 2.4 4.556 1.233 3.207 4.043 3.323 6.713-.742 1.555-3.664-3.657-.645-3.415-2.377-3.862-2.63-1.395-4.605.399-.46.13 5.039 2.553 1.583 3.751 3.036.469 3.122 3.125 3.741 4.806 1.825 1.901 1.451-2.099 3.635.185-1.381-2.035-7.318-5.733-2.539-4.547-.026-2.048-.864-3.694.6-3.659 1.45-2.627-1.524 6.475 1.75 3.137.905-.395 1.129-2.63 2.756.211 2.363 2.324.853 4.008-2.479 1.88.596 2.023 4.458 2.745 3.732 5.908.769 2.782 1.846 1.757 2.784 1.597.736 2.697 1.154.715 1.189-.571 3.37.721 2.58 2.713 3.635 4.104 2.322 1.048-3.324-7.104.663-2.451 4.194 3.788 1.573 5.368-2.191 4.761 2.382-.192 3.15 3.221 6.13 3.108 2.718 1.293 4.557 6.258-.127 4.191-1.624-1.465-7.373-3.272-2.678-.486 4.337 2.008 7.78 3.21 11.964 5.731 2.993 2.137 4.28 4.585 5.421 5.069-2.521 1.202-7.581-.96-3.82-1.622-2.346-.428-4.985-1.614-2.738 1.309 1.911 1.595 6.77 1.426 7.641 1.606-.739 1.627-2.005 1.757.031 1.876-2.271 1.21.728 1.398.938 2.09zm-4.644-13.116c-1.382-1.445-1.739-4.151-.246-1.796.766.308 2.454 4.423.246 1.796zm15.126 9.609c.862-.056.025.655 0 0zM48.794 72.165c-.059-2.184.5 1.685 0 0zm-1.503-2.023c-1.738-3.358 2.191.951 0 0zM29.074 57.569c1.021-.272.502 1.747 0 0zm14.498 7.859c.627-2.355.737 1.976 0 0zm-10.243-7.122c-.722-1.299 1.51 1.22 0 0zm8.791 2.818c-1.642-3.689 1.166-2.015.364.604l-.364-.604zM26.948 51.005c-.736-1.21-1.954-4.761-1.562-5.846.355 1.759 3.755 7.599 1.668 2.416-2.306-4.339 2.757 1.41 3.283 2.494.243 1.078-1.423-.294-.294 2.233-2.052-2.878-1.215 1.583-3.089-1.297zm-4.69-3.228c.194-2.814 1.073 1.935 0 0zm2.107.725c1.006-2.124 1.705 2.961 0 0zm-5.069-3.921c-1.744-1.733-3.007-3.33.082-1.076 1.19.047-2.638-3.633.293-1.169 3.081.562 1.521 5.052-.368 2.244zm2.663-.07c1.013-1.004.538.988 0 0zm1.639.525c-1.536-2.873 1.864 1.207 0 0zm-3.257-3.107c-5.07-4.513 6.371 2.36.828.837l-.834-.836zm14.529 8.441c-2.194-1.316-.582-9.262.167-3.828 2.133-.69-.117 2.807 1.473 2.774-.251 2.206-.963 3-1.64 1.053zm5.374 3.176c.215-2.395.453 1.638 0 0zm-.933-.922c.242-1.023.025 1.205 0 0zM21.333 40.446c-3.258-4.495 9.467 4.546 2.087 1.14-.771-.202-1.699-.274-2.087-1.14zm10.348 5.486c-.308-3.785.688.627 0 0zm7.856 5.04c.608-2.156.045 1.426 0 0zM21.832 38.73c1.936-.414 8.024 3.401 2.433 1.089-.621-.688-1.945-.375-2.433-1.089zm16.626 8.286c.207-3.87 1.155-2.311.007.554l-.007-.554zm-15.185-9.633c.789-1.157-2.094-5.232.41-1.462 1.085.862 3.14 1.444 1.325 1.806 2.854 2.518-.696.682-1.741-.344zm14.362 8.424c.545-4.408.481 2.583 0 0zm-16.01-12.488c.603-.258.318.803 0 0zm3.752 2.23c.964-2.023 1.779 2.256 0 0zm10.568 5.878c-.01-.777.199 1.13 0 0zm-.612-1.349c-1.467-3.619 1.364 1.916 0 0zm-.901-2.372c-.246-1.495.837 1.879 0 0zm1.466-2.383c-1.007-1.774 1.271-7.815 1.524-4.069-1.062 2.92-.307 4.553.434.637 1.368-3.082-.296 6.082-1.96 3.432zm1.507-8.986c.439-.539.097.649 0 0zM34.884 75.9c-.597-.521.075.331 0 0zm5.182 2.621c2.882.739 2.873-.448.263-.802-1.407-1.303-5.822-2.685-1.864-.162.262.664 1.09.648 1.602.963zm-10.233-6.815c1.588 1.184 5.98 3.356 2.262.451 1.255-1.457-2.4-2.232-1.188-3.207-3.083-1.887-2.432-1.718-.272-1.659-3.705-1.656.535-1.532.335-2.38-1.429-.281-7.096-2.519-3.762.183-3.389-1.728-.808.644-1.832.393-3.459-.945 3.086 2.639-.551 1.75 1.993 1.576 5.352 4.036.841 1.667-.594.856 3.228 2.152 4.167 2.803zm5.419 3.107c6.59 2.124-3.225-2.594 0 0zm27.742 16.806c.085-1.308-.901 1.115 0 0zm2.851 1.2c1.52-1.473.062 2.346 2.519-.361.026-1.938-.076-3.083-2.824-.729-.758.42-1.096 2.206.305 1.089zM20.582 64.394c-.467-1.835-3.273-1.826 0 0zm3.045 1.995c-1.131-1.874-4.034-1.697 0 0zm17.321 10.446c1.691 1.502 7.767 1.102 2.054.185-.846-1.251-5.373-.95-2.054-.185zm23.811 14.706c2.603-2.184-2.521.975 0 0zm5.413 3.72c.016-.701-1.122.307 0 0zm.008-.981c2.882-3.049-2.793.181 0 0zM13.099 58.131c-2.462-3.505-1.527-5.08-3.896-7.943-.449-2.189-4.064-7.155-1.876-1.894 2.01 3.077 2.607 7.841 5.766 9.836zm56.184 35.179c5.303-3.427-2.177-1.493 0 0zm4.048 1.586c2.656-2.287-1.68-.477 0 0zM19.685 60.52c.76-1.13-1.963-.145 0 0zm52.801 33.298c2.571-1.658-.586-1.403-.466.152l.466-.152zM37.593 71.824c-.088-1.114-1.358.095 0 0zm2.156 1.241c-.686-1.385-1.054.217 0 0zm36.863 21.873c3.294-2.376-1.997-.455-.692.45l.692-.45zm-1.261-.61c2.683-2.249-2.833.997 0 0zm6.445 4.292c1.802-1.207-2.189-.39 0 0zM21.331 59.711c2.416.541 9.651 5.948 5.382.374-2.187-.647-.875-5.992-3.105-5.046 1.497 2.501 1.231 3.565-1.911 1.994-3.95-1.935-2.22.956-1.448 1.75-1.052.239 1.391.913 1.082.938zm-11.003-8.689c.432-1.788-3.987-9.838-2.084-4.034.685 1.216.616 3.52 2.084 4.034zm20.194 12.45c-1.243-1.04-.059-.147 0 0zm3.062.712c-.002-1.894-3.385-.769 0 0zm26.536 16.729c-.506-1.294-2.001-.029 0 0zm1.275.931c-.188-.724-.735.14 0 0zm10.519 6.625c1.011-.748-1.262-.096 0 0zM15.832 52.424c2.893-1.114-3.1-.799 0 0zm41.962 26.443c-.032-1.873-1.845.465 0 0zm-43.105-29.1c1.859-.627-1.72-.413 0 0zm5.395 2.613c-.034-.616-.57.233 0 0zM85.885 92.73c2.39-.485 7.837 1.217 8.717-.633-2.902-.07-10.042-2.048-10.379.472l.636.1 1.027.062zM21.797 52.805c.041-1.899-1.48-.07 0 0zM7.613 42.967c-.645-3.616-2.451-.548 0 0zm3.383.85c.041-1.161-3.096-1.045 0 0zm1.933.95c-.559-.453-.437.572 0 0zm12.163 7.803c.573-.526-1.355-.39 0 0zm-13.45-9.944c-.327-2.732-3.918-.409 0 0zm-6.935-4.5c-.099-1.261-.676.469 0 0zm1.032-.78c-.168-1.495-.88.19 0 0zm5.699 3.402c2.404-.947-4.39-1.958-.492-.179l.492.179zm76.278 47.116c1.542-1.414-1.961-.437 0 0zm9.215 4.777c.618-1.829-1.557.235 0 0zM12.019 37.766c.254-1.769-1.911.352 0 0zm-8.109-5.433c-.436-2.498-.375-6.88 3.791-5.394-5.562 1.104 3.849 6.919 2.661 2.326 2.345.114 4.575-1.382 3.342.889 4.608-.509 7.802-4.505 12.253-3.945 3.467-.459 7.257-.807 10.993-2.202 3.072-.221 6.028-3.528 4.339-5.488-4.189-.355-8.574.176-13.204 1.091-5.13 1.067-9.791 3.093-14.967 3.963-5.046.678 1.014 1.867-.43 2.132-2.638.914 3.14 1.524-.341 2.492-2.15-.409-4.388-1.147-3.469-3.413-4.834.627-9.081 2.638-5.262 7.552l.284.002zm11.647-5.932c1.133-4.175 6.071 3.436 1.857.555-.503-.376-1.331-.684-1.857-.555zm.22-2.024c1.642-1.218.869.683 0 0zm2.077.033c.148-1.921 4.749 1.017.76.692l-.76-.692zm2.841-1.142c1.038-1.213.293 1.079 0 0zm.727-.487c1.727-2.076 9.783-1.325 3.887-.202-1.581-1.19-2.792.702-3.887.202zm10.513-1.62c-.263-5.67 5.223 2.014 0 0zm2.983-.017c1.09-2.858 4.232-1.147.504-.575.081.305-.109 1.475-.504.575zM10.843 36.301c3.259-1.995-3.459-1.731 0 0zm2.404.669c1.143-1.215-2.482-.492 0 0zm-7.093-5.043c1.862-1.431-2.203-.544 0 0zm96.215 60.19c.054-1.659-1.423.748 0 0zm-9.777-6.672c.278-1.91-1.256.167 0 0zm12.464 7.315c2.603.009 7.888-.809 2.223-.805-.889.138-5.179.109-2.223.805zM15.372 35.792c2.107-.145 3.296-2.324-.408-2.199-5.746-.595 5.065 1.965-.736 1.234-.78.516 1.099 1.114 1.143.965zm1.856.939c-.22-1.353-.645.719 0 0zm2.201-5.863c.915-1.134-1.265-.303 0 0zm-7.007-11.717c3.76-1.279 8.901-2.716 10.671.63-1.807-2.169-.729-4.315.977-1.136 2.413 3.217 3.621-1.463 2.052-2.542 1.788 2.228 3.823 3.272 1.197.141 2.853-3.432-5.712.449-7.659.41-.937.42-9.671 2.228-7.244 2.498zm2.203-4.22c2.144-1.618 7.417.963 4.034-1.608-.331-.292-7.409 1.95-4.034 1.608zm7.817.322c2.509.059-1.082-3.371 1.908-1.815-.491-1.605-3.483-1.905-4.944-2.546-.821 1.467 1.683 4.38 3.036 4.36zm-6.446-7.095c.868-1.177-1.521.597 0 0zm3.195.765c4.044-.537-1.031-1.741-.821-.043l.821.043zm-5.966-4.669C10.377.536 18.58 4.878 15.687.985c-2.435-1.939-4.775 2.182-2.463 3.268zM49.77 23.937c1.306-2.316-5.392-3.121-.879-.821.41.139.321.981.879.821zm61.649-15.968c-.467 1.841-.762 4.933-.866 9.275 0 .852-.385 1.278-1.155 1.278s-1.306-.371-1.608-1.113c-.824-2.006-1.608-3.408-2.35-4.205-.879-.934-2.047-1.498-3.504-1.69-1.567-.247-5.469-.371-11.709-.371-1.429 0-2.363.151-2.803.453-.276.192-.412.604-.412 1.231v18.675c0 .632.399.935 1.196.907 2.446-.028 5.992-.192 10.636-.495.907-.11 1.525-.41 1.835-.886s.625-1.724.928-3.731c.192-1.099.838-1.526 1.938-1.278.935.192 1.333.619 1.196 1.278-.77 3.738-1.017 8.602-.742 14.599.028.715-.426 1.099-1.36 1.155-.77.082-1.251-.33-1.442-1.231-.715-3.436-2.04-5.27-3.978-5.504s-5.092-.351-9.461-.351c-.495 0-.742.179-.742.536v18.551c0 1.374.508 2.308 1.526 2.803.797.412 2.521.783 5.159 1.113 1.347.137 1.938.728 1.772 1.772-.164.907-1.374 1.264-3.627 1.072-6.508-.528-11.886-.495-16.119.082-1.182.164-1.772-.317-1.772-1.442 0-.715.591-1.127 1.772-1.231 2.694-.303 4.046-2.666 4.046-7.091V16.832c0-1.814-.323-3.209-.969-4.184s-1.848-1.862-3.607-2.659c-1.099-.495-1.511-1.168-1.231-2.02.137-.528.352-.811.66-.866.276-.082.997-.027 2.185.164 1.731.276 5.813.412 12.244.412 7.585 0 14.14-.164 19.665-.495 1.841-.11 2.756.041 2.756.453 0 .111-.014.222-.041.33zm26.796 52.397c0 1.099-.619 1.58-1.855 1.442-3.794-.352-8.492-.303-14.099.164-1.127.11-1.821.082-2.081-.082s-.392-.618-.392-1.36c0-.66.749-1.216 2.247-1.67s2.247-1.807 2.247-4.061V17.492c0-2.226-.323-3.861-.969-4.906s-1.779-1.855-3.401-2.432c-.852-.303-1.278-.728-1.278-1.278 0-.824.618-1.442 1.855-1.855 1.869-.604 3.806-1.539 5.813-2.802 1.649-.989 2.693-1.483 3.133-1.483 1.017 0 1.526.701 1.526 2.103a436.8 436.8 0 0 0-.164 4.122c-.082 2.679-.109 5.359-.082 8.038l.164 36.82c0 1.677.412 2.893 1.231 3.649s2.24 1.258 4.246 1.505c1.231.137 1.855.604 1.855 1.407zm37.597-2.756c0 .577-1.051 1.45-3.154 2.618s-3.786 1.752-5.05 1.752c-1.072 0-2.02-.528-2.845-1.567s-1.407-1.567-1.731-1.567c-.247 0-1.553.563-3.917 1.69s-4.741 1.69-7.132 1.69c-2.254 0-4.136-.66-5.648-1.979-1.649-1.456-2.474-3.436-2.474-5.936 0-4.749 5.441-8.163 16.325-10.224 1.869-.352 2.817-1.113 2.845-2.267l.082-2.638c.164-4.507-1.828-6.76-5.977-6.76-1.182 0-2.302 1.058-3.36 3.174s-2.577 3.257-4.556 3.422c-2.254.22-3.381-.728-3.381-2.845 0-1.319 1.677-2.858 5.029-4.617 3.518-1.841 6.898-2.756 10.141-2.756 5.579 0 8.341 2.652 8.286 7.956l-.164 16.985c-.028 1.786.728 2.679 2.267 2.679.302 0 .879-.069 1.731-.206s1.347-.206 1.483-.206c.797 0 1.196.536 1.196 1.608zm-12.697-9.399c.028-.687-.131-1.14-.469-1.36s-.887-.261-1.628-.117c-6.624 1.182-9.935 3.339-9.935 6.473 0 3.166 1.718 4.741 5.16 4.741 1.374 0 2.79-.261 4.246-.783 1.704-.604 2.556-1.333 2.556-2.185zm43.446 4.486c0 2.914-1.114 5.229-3.36 6.947s-5.297 2.577-9.173 2.577c-2.583 0-5.167-.276-7.751-.824-2.226-.495-3.518-.948-3.87-1.36-.22-.385-.33-2.267-.329-5.648 0-1.456.329-2.212.99-2.267.66-.082 1.223.276 1.69 1.072 2.061 3.6 5.386 5.394 9.977 5.394 3.87 0 5.813-1.347 5.813-4.046a3.84 3.84 0 0 0-1.319-2.968c-.962-.907-2.831-1.965-5.606-3.174-4.013-1.786-6.692-3.354-8.032-4.7-1.456-1.429-2.185-3.354-2.185-5.772 0-2.968 1.14-5.277 3.422-6.925 2.111-1.595 4.947-2.391 8.492-2.391 2.226 0 4.26.179 6.101.536 1.979.352 3.01.797 3.092 1.319.22 1.539.673 3.765 1.36 6.684.082.352-.303.646-1.155.866-.907.192-1.512.041-1.814-.453-2.171-3.546-4.925-5.318-8.245-5.318-3.765 0-5.648 1.21-5.648 3.628 0 1.347.508 2.418 1.525 3.215.907.687 3.037 1.759 6.39 3.215 3.518 1.512 5.909 2.872 7.173 4.081 1.649 1.567 2.474 3.669 2.474 6.308zm47.821 7.42c0 .962-.646 1.471-1.938 1.526-1.923.028-4.438.164-7.544.412-1.539.303-2.638.11-3.298-.577-4.342-4.673-8.025-9.564-11.048-14.675-.247-.44-.563-.66-.948-.66-.467 0-1.278.412-2.432 1.231-1.292.715-1.938 1.731-1.938 3.05 0 .935.028 2.287.082 4.046s.495 2.914 1.319 3.463c.577.385 1.91.687 3.999.907 1.292.164 1.938.646 1.938 1.442 0 .632-.103 1.024-.309 1.175s-.749.185-1.628.103c-2.749-.247-7.387-.11-13.934.412-1.649.137-2.542-.069-2.679-.619-.055-.192-.082-.467-.082-.824 0-.852.838-1.498 2.521-1.938 1.511-.385 2.267-2.158 2.267-5.318V17.244c0-2.254-.22-3.82-.66-4.7-.604-1.127-1.869-2.006-3.793-2.638-.907-.303-1.36-.728-1.36-1.278 0-.797.646-1.415 1.938-1.855 2.062-.687 4.026-1.642 5.895-2.845 1.511-.989 2.446-1.483 2.802-1.483 1.127 0 1.69.715 1.69 2.144 0-.192-.013 1.168-.041 4.081l-.041 8.079.082 25.807c0 .715.192 1.072.577 1.072.412 0 1.044-.352 1.896-1.072 2.287-1.786 5.085-4.122 8.41-7.008.66-.687.989-1.231.99-1.649 0-.742-1.113-1.264-3.339-1.567-.962-.11-1.415-.646-1.36-1.608.082-.962.563-1.374 1.442-1.231 1.979.276 4.865.426 8.657.453l7.874.041c.852.027 1.278.536 1.278 1.525 0 .935-.674 1.442-2.02 1.526-2.111.082-4.109.563-5.977 1.442-2.611 1.182-5.394 3.257-8.368 6.225-.22.164-.33.371-.329.619 0 .385.467 1.306 1.407 2.756 3.436 5.222 6.684 9.166 9.729 11.832 1.951 1.677 3.779 2.521 5.483 2.521 1.264 0 2.047.089 2.35.268s.453.653.453 1.422zM143.858 74.487c0 .096-.184.195-.553.297-.234.059-.444.283-.61.657l-2.581 5.17c-.016.032-.056.045-.12.04-.059-.006-.1-.023-.12-.056-.129-.192-.457-.863-.986-2.012l-.786-1.587c-.059 0-.345.51-.858 1.524l-1.034 1.948c-.016.037-.059.059-.117.048-.053.003-.104-.022-.136-.065-.39-.61-1.288-2.277-2.693-5.001-.16-.321-.34-.524-.537-.61-.342-.15-.513-.259-.513-.328 0-.208.115-.302.345-.281 1.032.107 1.935.086 2.709-.059.176-.032.264.027.264.176 0 .208-.12.342-.361.401-.315.075-.473.192-.473.353 0 .101.037.251.117.449.192.497.481 1.127.866 1.892s.61 1.146.673 1.146c.043 0 .27-.399.681-1.194l.617-1.323c0-.208-.07-.433-.208-.673-.166-.353-.352-.564-.577-.633-.353-.117-.529-.243-.529-.361 0-.214.12-.302.361-.264.823.117 1.7.091 2.613-.059.176-.032.264.021.264.16 0 .203-.131.328-.393.377-.311.059-.465.217-.465.473 0 .117.035.267.104.433.823 2.014 1.299 3.022 1.427 3.022.048 0 .262-.393.641-1.173.406-.838.69-1.515.85-2.029a.24.24 0 0 0 .016-.088c0-.23-.179-.409-.537-.537-.278-.091-.41-.192-.41-.305 0-.188.088-.259.264-.217.234.059.673.094 1.299.12l1.162-.008c.219-.027.328.035.328.184z"/><use xlink:href="#C"/><path d="M159.065 76.779c0 1.058-.369 1.945-1.106 2.662a3.47 3.47 0 0 1-2.517 1.034 5.92 5.92 0 0 1-1.724-.273c-.577-.176-.868-.337-.88-.481l.008-1.29.023-1.972-.032-5.042c0-.385-.059-.649-.176-.794-.107-.129-.34-.23-.704-.305-.139-.048-.208-.136-.208-.264 0-.117.104-.205.313-.282.293-.107.671-.286 1.114-.537.353-.198.572-.297.657-.297.166 0 .249.136.249.409l-.023.834-.008 1.524.016 2.773c0 .262.091.337.273.225a3.96 3.96 0 0 1 2.004-.553c.802 0 1.454.242 1.956.725s.753 1.116.753 1.895zm-1.282.713c0-.733-.203-1.333-.61-1.803-.385-.444-.852-.665-1.403-.665a2.35 2.35 0 0 0-1.122.297c-.369.198-.553.406-.553.625v2.148c0 1.032.569 1.548 1.707 1.548.593 0 1.071-.191 1.435-.573s.545-.907.545-1.575zm14.251 2.102a.3.3 0 0 1 .032.104c0 .117-.273.297-.818.553-.631.293-.997.441-1.114.441-.096 0-.207-.162-.332-.485s-.212-.485-.26-.485a48.58 48.58 0 0 1-.91.421c-.612.28-1.075.421-1.391.421a2.53 2.53 0 0 1-1.835-.762c-.625-.604-.938-1.451-.938-2.541 0-.915.369-1.702 1.106-2.365.652-.582 1.317-.879 1.996-.879.481 0 1.055.062 1.724.184.208.038.313-.023.313-.184v-2.742c0-.311-.075-.529-.224-.657-.096-.086-.323-.188-.681-.305-.171-.059-.257-.168-.256-.312 0-.134.115-.232.345-.297.315-.096.692-.256 1.13-.481.363-.192.588-.288.673-.288.198 0 .297.136.297.409a215.34 215.34 0 0 0-.023.797l-.023 1.567v7.287c0 .305.136.457.409.457.102 0 .238-.016.409-.048.188-.032.313.029.377.184zm-2.477-.794v-2.87c0-.235-.208-.478-.625-.729a2.74 2.74 0 0 0-1.442-.401c-1.117 0-1.675.689-1.675 2.068 0 .738.222 1.368.666 1.892s.964.786 1.563.786c.273 0 .593-.091.962-.273s.553-.34.553-.473zm9.427.232c0 .23-.311.516-.93.858-.705.379-1.429.569-2.172.569-.807 0-1.486-.264-2.036-.794-.588-.561-.882-1.309-.882-2.244 0-1.058.328-1.908.986-2.549.614-.598 1.368-.897 2.26-.897.529 0 1.023.168 1.483.504.412.293.684.641.818 1.026.048.134.12.208.217.225.139.027.208.12.208.281 0 .219-.262.406-.786.561l-3.696 1.098c.235 1.272.892 1.908 1.956 1.908.615 0 1.315-.225 2.1-.673.117-.069.232-.104.345-.104.086 0 .129.077.129.232zm-1.9-3.214c0-.293-.119-.551-.356-.774s-.531-.332-.878-.332c-.983 0-1.475.708-1.475 2.124v.192l2.181-.657c.353-.101.529-.286.529-.553zm10.7-1.348c0 .101-.168.205-.504.313-.219.059-.406.283-.561.657-.262.631-.719 1.555-1.371 2.773l-1.275 2.26c-.016.038-.051.059-.104.048-.048-.002-.092-.026-.12-.064-1.133-1.63-2.103-3.297-2.91-5.001-.171-.364-.34-.566-.504-.61-.311-.117-.465-.232-.465-.328a.24.24 0 0 1 .313-.281c.326.043.809.059 1.451.032l1.308-.096c.155-.032.232.027.232.176 0 .188-.11.307-.328.361-.41.117-.625.257-.625.433a1.14 1.14 0 0 0 .08.345c.176.449.508 1.096.978 1.944s.738 1.271.802 1.271c.048 0 .276-.406.681-1.218l.922-2.084a.41.41 0 0 0 .04-.176c0-.208-.129-.379-.385-.513-.251-.101-.377-.198-.377-.288 0-.188.082-.264.249-.232.214.037.59.07 1.131.096l1.055.016c.198-.038.297.019.297.168z"/><use xlink:href="#C" x="43.927"/><path d="M199.842 80.146c0 .214-.12.307-.361.281-.738-.069-1.651-.059-2.742.032-.219.022-.354.016-.41-.016s-.076-.12-.076-.264c0-.129.145-.236.437-.325s.437-.352.437-.79V71.81c0-.433-.063-.751-.188-.954s-.352-.361-.661-.473c-.166-.059-.249-.142-.249-.249 0-.16.12-.281.361-.361a4.79 4.79 0 0 0 1.13-.545c.321-.192.523-.288.61-.288.198 0 .297.136.297.409a104.5 104.5 0 0 0-.032.802l-.016 1.563.032 7.159c0 .326.08.563.234.704s.436.245.826.293c.234.027.361.117.361.273zm7.768-2.998c0 .93-.345 1.717-1.034 2.36s-1.544.966-2.565.966-1.828-.283-2.421-.85c-.572-.556-.858-1.29-.858-2.205a3.08 3.08 0 0 1 1.082-2.389c.7-.625 1.536-.938 2.51-.938 1.042 0 1.854.281 2.437.842.566.545.85 1.283.85 2.212zm-1.411.489c0-.839-.203-1.52-.61-2.044-.395-.508-.897-.762-1.507-.762-.566 0-1.029.199-1.387.598s-.537.883-.537 1.454c0 .919.208 1.642.625 2.148a1.85 1.85 0 0 0 1.507.705c.588 0 1.053-.195 1.395-.585s.513-.895.513-1.515zm9.787-.705c0 .999-.335 1.847-1.006 2.545s-1.452 1.046-2.345 1.046a4.33 4.33 0 0 1-1.563-.288c-.059-.021-.08.11-.08.393v2.413c0 .39.318.641.954.753.293.059.48.103.557.148s.116.121.116.234c0 .176-.12.264-.361.249-1.122-.075-2.108-.048-2.958.08-.176.027-.286.027-.328 0s-.059-.1-.059-.217c0-.091.152-.201.457-.328.262-.107.393-.364.393-.769V76.12c0-.572-.158-.93-.473-1.074-.374-.166-.561-.302-.561-.409 0-.117.11-.205.328-.264a3.34 3.34 0 0 0 .879-.369c.251-.144.403-.217.457-.217.16 0 .291.147.393.441.15.428.249.641.297.641.011 0 .234-.125.689-.377.493-.273.973-.409 1.442-.409.764 0 1.395.217 1.892.649.593.508.89 1.243.89 2.204zm-1.362.642c0-.871-.217-1.55-.649-2.036-.353-.406-.767-.61-1.243-.61-.369 0-.721.129-1.058.385-.444.331-.666.794-.666 1.387v2.269c0 .144.203.297.61.457.438.176.915.264 1.427.264 1.053 0 1.579-.705 1.579-2.111zm15.847 2.582c0 .176-.082.259-.249.249-1.09-.08-2.111-.08-3.046 0-.208.016-.313-.077-.313-.281 0-.16.142-.246.425-.256.352-.022.537-.312.537-.879v-2.115c0-1.197-.487-1.795-1.459-1.795-.513 0-.983.094-1.411.281-.39.166-.588.331-.593.497l-.032 3.183c0 .331.04.551.12.657.059.075.19.129.393.16.47.08.705.179.705.297 0 .101-.013.171-.04.208-.032.059-.129.077-.288.072-.61-.021-1.496-.011-2.662.032-.166.006-.273-.008-.321-.04s-.072-.107-.072-.224c0-.139.153-.225.457-.256.331-.038.497-.34.497-.906v-2.181c0-.588-.134-1.042-.401-1.363-.234-.288-.528-.433-.897-.433-.528 0-1.015.109-1.442.325s-.641.447-.641.694v2.932c0 .331.086.561.257.69.155.117.436.19.842.217.219.011.328.086.328.225 0 .155-.088.232-.264.232l-2.902.117c-.203.027-.334.027-.393 0-.048-.027-.072-.091-.072-.192 0-.134.197-.249.593-.345.234-.059.361-.377.361-.938v-2.461c0-.625-.168-.986-.504-1.082-.283-.08-.456-.139-.517-.176s-.092-.1-.092-.184c0-.096.278-.293.834-.61.588-.331.949-.497 1.082-.497.117 0 .207.162.284.485s.138.485.181.485c.059 0 .222-.082.489-.249.331-.208.631-.364.897-.465.438-.171.89-.256 1.349-.256.374 0 .7.08.978.234.2.113.377.263.521.441l.192.235.41-.235a5.52 5.52 0 0 1 .954-.441 3.96 3.96 0 0 1 1.323-.24c1.464 0 2.196.804 2.196 2.413v2.597c0 .305.072.528.217.649.129.107.379.198.754.273.283.059.425.134.425.234z"/><use xlink:href="#C" x="86.283"/><path d="M246.864 80.233c0 .166-.12.234-.361.225l-2.613-.032c-.305.022-.47-.016-.497-.117a.45.45 0 0 1-.016-.136c0-.107.155-.203.465-.288.283-.08.425-.355.425-.826v-2.127c0-1.224-.532-1.835-1.595-1.835-.463-.004-.918.112-1.323.337-.385.219-.577.446-.577.681v2.928c0 .502.328.783.986.842.251.021.377.101.377.234s-.035.214-.104.235c-.032.01-.117.013-.273.008-.868-.031-1.737.012-2.597.128-.192.027-.312.035-.361.023-.107-.021-.16-.104-.16-.249 0-.129.153-.238.457-.328.283-.086.425-.441.425-1.066v-2.429c0-.412-.059-.673-.16-.786-.075-.08-.323-.192-.745-.337-.1-.027-.167-.121-.16-.224 0-.107.11-.201.328-.282a5.15 5.15 0 0 0 .986-.537c.293-.203.493-.305.577-.305.144 0 .235.164.288.493s.115.492.201.492c-.043 0 .23-.156.818-.469s1.168-.469 1.74-.469c1.384 0 2.081.788 2.092 2.365l.016 2.581c0 .331.086.569.257.714.129.107.377.197.745.273.235.048.361.136.361.264zm5.145-.608c0 .257-.234.469-.705.657a3.49 3.49 0 0 1-1.266.234c-1.16 0-1.74-.617-1.74-1.852v-2.902c0-.369-.029-.595-.088-.677s-.254-.164-.585-.245c-.086-.021-.129-.104-.129-.249 0-.155.032-.249.096-.281.577-.283 1.079-.791 1.507-1.523.059-.101.173-.134.345-.096.117.038.179.107.184.208l.032.997c0 .075.013.129.04.16.038.048.117.072.257.072h1.788c.101 0 .101.126 0 .377-.117.305-.305.457-.545.457h-1.21c-.208 0-.337.035-.385.104-.038.048-.056.179-.056.393v2.621c0 .662.059 1.082.176 1.258.155.225.516.337 1.082.337a3.11 3.11 0 0 0 .681-.092l.425-.092c.059 0 .096.04.096.12zm3.64.355c0 1.389-.585 2.434-1.755 3.134-.107.059-.184.096-.232.096-.075 0-.144-.086-.208-.256-.018-.046-.029-.095-.032-.144 0-.091.152-.235.457-.449.524-.364.786-.775.786-1.234 0-.234-.153-.449-.457-.641-.428-.267-.641-.596-.641-.986a.88.88 0 0 1 .264-.653c.176-.174.412-.26.705-.26a.97.97 0 0 1 .821.385c.194.256.293.593.293 1.01z"/><use xlink:href="#D"/><path d="M149.967 95.009c0 .166-.12.234-.361.225l-2.613-.032c-.305.021-.47-.016-.497-.117a.45.45 0 0 1-.016-.136c0-.107.155-.203.465-.288.283-.08.425-.355.425-.826v-2.127c0-1.224-.532-1.835-1.595-1.835-.463-.004-.918.112-1.323.337-.385.219-.577.446-.577.681v2.934c0 .502.328.783.986.842.251.021.377.101.377.235s-.035.214-.104.235c-.032.01-.117.013-.273.008-.868-.031-1.737.012-2.597.128-.192.027-.312.035-.361.023-.107-.021-.16-.104-.16-.249 0-.129.152-.238.457-.328.283-.086.425-.441.425-1.066v-2.429c0-.412-.059-.673-.16-.786-.075-.08-.323-.192-.745-.337-.1-.027-.167-.121-.16-.224 0-.107.11-.201.328-.282a5.15 5.15 0 0 0 .986-.537c.293-.203.493-.305.577-.305.144 0 .234.164.288.493s.115.492.201.492c-.043 0 .23-.156.818-.469s1.168-.469 1.74-.469c1.384 0 2.081.788 2.092 2.365l.016 2.581c0 .331.086.569.257.714.129.107.377.198.745.273.235.048.361.136.361.264z"/><use xlink:href="#C" x="5.707" y="14.775"/><path d="M169.501 94.369a.3.3 0 0 1 .032.104c0 .117-.273.297-.818.553-.631.293-.997.441-1.114.441-.096 0-.207-.162-.332-.485s-.212-.485-.26-.485a48.58 48.58 0 0 1-.91.421c-.612.28-1.075.421-1.391.421a2.53 2.53 0 0 1-1.835-.762c-.625-.604-.938-1.451-.938-2.541 0-.915.369-1.702 1.106-2.365.652-.582 1.317-.879 1.996-.879.481 0 1.055.062 1.724.184.208.038.313-.023.313-.184V86.05c0-.311-.075-.529-.224-.657-.096-.086-.323-.188-.681-.305-.171-.059-.257-.168-.256-.312 0-.134.115-.232.345-.297.315-.096.692-.256 1.13-.481.363-.192.588-.288.673-.288.198 0 .297.136.297.409a225.21 225.21 0 0 0-.024.797l-.023 1.567v7.287c0 .305.136.457.409.457.102 0 .238-.016.409-.048.188-.032.313.029.377.184zm-2.477-.794v-2.87c0-.234-.208-.478-.625-.729a2.74 2.74 0 0 0-1.442-.401c-1.117 0-1.675.689-1.675 2.068 0 .738.222 1.368.666 1.892s.964.786 1.563.786c.273 0 .593-.091.962-.273s.553-.34.553-.473zm8.53-4.105c0 .647-.188.97-.561.97-.059 0-.254-.037-.585-.117s-.575-.117-.729-.117c-.598 0-.897.403-.897 1.21v2.365c0 .278.096.469.288.593.117.069.393.163.842.282.235.059.361.149.361.273 0 .144-.02.231-.06.26s-.141.035-.301.02c-1.175-.117-2.111-.129-2.79-.016-.214.038-.35.038-.409 0-.048-.032-.072-.126-.072-.281 0-.144.148-.259.446-.345s.446-.342.446-.769v-2.58c0-.337-.044-.564-.132-.681s-.33-.276-.725-.473l-.048-.023c-.107-.059-.16-.129-.16-.225 0-.107.11-.198.328-.273a3.58 3.58 0 0 0 1.01-.545c.251-.198.412-.297.481-.297.192 0 .307.166.345.497.048.422.104.633.168.633.006 0 .305-.2.897-.601a2.25 2.25 0 0 1 1.283-.393c.385 0 .577.205.577.617z"/><use xlink:href="#D" x="43.286"/><path d="M191.874 91.707c0 .999-.335 1.847-1.006 2.545s-1.452 1.046-2.345 1.046a4.33 4.33 0 0 1-1.563-.288c-.059-.021-.08.11-.08.393v2.413c0 .39.318.641.954.754.293.059.48.102.557.148s.116.121.116.234c0 .176-.12.264-.361.249-1.122-.075-2.108-.048-2.958.08-.176.027-.286.027-.328 0s-.059-.1-.059-.217c0-.091.152-.201.457-.328.262-.107.393-.364.393-.769v-7.071c0-.572-.158-.93-.473-1.074-.374-.166-.561-.302-.561-.409 0-.117.11-.205.328-.264a3.34 3.34 0 0 0 .879-.369c.251-.144.403-.217.457-.217.16 0 .291.147.393.441.15.428.249.641.297.641.011 0 .234-.125.689-.377.493-.273.973-.409 1.442-.409.764 0 1.395.217 1.892.649.593.508.89 1.243.89 2.204zm-1.363.642c0-.871-.217-1.55-.649-2.036-.353-.406-.767-.61-1.243-.61-.369 0-.721.129-1.058.385-.444.331-.666.794-.666 1.387v2.269c0 .144.203.297.61.457.438.176.915.264 1.427.264 1.053 0 1.579-.705 1.579-2.111zm13.243 2.035c0 .117-.205.281-.613.509s-.736.34-.982.34c-.208 0-.393-.102-.553-.305s-.273-.305-.337-.305c-.048 0-.302.11-.762.328s-.922.328-1.387.328c-.438 0-.804-.129-1.098-.385-.321-.283-.481-.668-.481-1.155 0-.925 1.058-1.587 3.174-1.993.364-.069.548-.217.553-.441l.016-.513c.032-.877-.355-1.314-1.162-1.314-.23 0-.447.205-.653.617s-.501.633-.879.665c-.438.043-.657-.142-.657-.553 0-.256.326-.556.978-.897.684-.352 1.341-.537 1.972-.537 1.085 0 1.622.516 1.611 1.548l-.032 3.303c-.006.347.142.528.441.528a2.59 2.59 0 0 0 .337-.04l.288-.04c.155 0 .232.104.232.313zm-2.463-1.828c.006-.134-.025-.222-.092-.264s-.172-.051-.317-.023c-1.288.23-1.932.649-1.932 1.258 0 .615.334.922.997.922a2.44 2.44 0 0 0 .825-.152c.331-.117.497-.259.497-.425zm7.849 1.844c0 .257-.234.469-.705.657a3.49 3.49 0 0 1-1.266.234c-1.16 0-1.74-.617-1.74-1.852v-2.902c0-.369-.029-.595-.088-.677s-.254-.164-.585-.244c-.086-.021-.129-.104-.129-.249 0-.155.032-.249.096-.281.577-.283 1.079-.791 1.507-1.523.059-.101.173-.134.345-.096.117.038.179.107.184.208l.032.997c0 .075.014.129.04.16.038.048.117.072.257.072h1.788c.101 0 .101.125 0 .377-.117.305-.305.457-.545.457h-1.21c-.208 0-.336.035-.385.104-.038.048-.056.179-.056.393v2.621c0 .663.059 1.082.176 1.258.155.225.516.337 1.082.337a3.11 3.11 0 0 0 .681-.092l.425-.092c.059 0 .096.04.096.12zm11.607-.016c0 .117-.205.281-.613.509s-.737.34-.982.34c-.208 0-.393-.102-.553-.305s-.273-.305-.337-.305c-.048 0-.302.11-.762.328s-.922.328-1.387.328c-.438 0-.804-.129-1.098-.385-.321-.283-.481-.668-.481-1.155 0-.925 1.058-1.587 3.174-1.993.364-.069.548-.217.553-.441l.016-.513c.032-.877-.355-1.314-1.162-1.314-.23 0-.447.205-.653.617s-.501.633-.879.665c-.438.043-.657-.142-.657-.553 0-.256.326-.556.978-.897.684-.352 1.341-.537 1.972-.537 1.085 0 1.622.516 1.611 1.548l-.032 3.303c-.006.347.142.528.441.528a2.59 2.59 0 0 0 .337-.04l.288-.04c.155 0 .232.104.232.313zm-2.463-1.828c.006-.134-.025-.222-.092-.264s-.172-.051-.317-.023c-1.288.23-1.932.649-1.932 1.258 0 .615.334.922.997.922a2.44 2.44 0 0 0 .825-.152c.331-.117.497-.259.497-.425zm11.922 1.844c0 .257-.234.469-.705.657a3.49 3.49 0 0 1-1.266.234c-1.16 0-1.74-.617-1.74-1.852v-2.902c0-.369-.029-.595-.088-.677s-.254-.164-.585-.244c-.086-.021-.129-.104-.129-.249 0-.155.032-.249.096-.281.577-.283 1.079-.791 1.507-1.523.059-.101.173-.134.345-.096.117.038.179.107.184.208l.032.997c0 .075.013.129.04.16.038.048.117.072.257.072h1.788c.101 0 .101.125 0 .377-.117.305-.305.457-.545.457h-1.21c-.208 0-.337.035-.385.104-.038.048-.056.179-.056.393v2.621c0 .663.059 1.082.176 1.258.155.225.516.337 1.082.337a3.11 3.11 0 0 0 .681-.092l.425-.092c.059 0 .096.04.096.12zm4.017-8.521c0 .246-.092.469-.277.686s-.387.317-.605.317a.87.87 0 0 1-.617-.224c-.16-.149-.234-.345-.234-.585s.097-.454.293-.657.41-.305.629-.305c.545 0 .818.257.818.77zm.89 9.074c-.027.155-.091.243-.192.264-.027.006-.155 0-.385-.016-.796-.059-1.579-.043-2.349.032-.208.022-.34.014-.393-.023s-.08-.117-.08-.256c0-.117.142-.225.425-.305.311-.091.465-.387.465-.89v-2.1c0-.422-.043-.719-.129-.89-.117-.235-.361-.414-.729-.537-.166-.059-.249-.147-.249-.264 0-.155.12-.27.361-.345a4.62 4.62 0 0 0 1.194-.553c.278-.192.449-.288.513-.288.214 0 .318.139.313.41l-.032 4.28c0 .347.051.596.152.745.117.166.326.283.642.353.347.08.504.205.473.377zm14.115-.016c0 .176-.082.259-.249.249-1.09-.08-2.111-.08-3.046 0-.208.016-.312-.077-.312-.281 0-.16.142-.246.425-.256.352-.021.537-.312.537-.88v-2.121c0-1.197-.487-1.795-1.459-1.795-.513 0-.983.094-1.411.281-.39.166-.588.331-.593.497l-.032 3.183c0 .331.04.551.12.657.059.075.19.129.393.16.47.08.705.179.705.297 0 .101-.013.171-.04.208-.032.059-.129.077-.288.072-.61-.022-1.496-.011-2.662.032-.166.006-.273-.008-.321-.04s-.072-.107-.072-.225c0-.139.153-.225.457-.256.331-.038.497-.34.497-.906v-2.181c0-.588-.134-1.042-.401-1.363a1.1 1.1 0 0 0-.897-.433c-.528 0-1.016.109-1.442.325s-.641.447-.641.694v2.932c0 .331.086.561.257.689.155.117.436.19.842.217.219.011.328.086.328.225 0 .155-.088.232-.264.232l-2.902.117c-.203.027-.334.027-.393 0-.048-.027-.072-.091-.072-.192 0-.134.197-.249.593-.345.234-.059.361-.377.361-.938v-2.461c0-.625-.168-.986-.504-1.082-.283-.08-.456-.139-.517-.176s-.092-.1-.092-.184c0-.096.278-.293.834-.61.588-.331.949-.497 1.082-.497.117 0 .207.162.284.485s.138.485.18.485c.059 0 .222-.082.489-.249a5.28 5.28 0 0 1 .897-.465c.43-.169.887-.256 1.349-.256.374 0 .7.08.978.235.2.113.377.263.521.441l.192.234.41-.234a5.5 5.5 0 0 1 .954-.441 3.96 3.96 0 0 1 1.323-.24c1.464 0 2.196.804 2.196 2.413v2.597c0 .305.072.528.217.649.129.107.379.198.754.273.283.059.425.134.425.234z"/><use xlink:href="#C" x="105.04" y="14.775"/></g></symbol><defs ><path id="C" d="M150.961 79.032c0 .23-.311.516-.93.858-.705.379-1.429.569-2.172.569-.807 0-1.486-.264-2.036-.794-.588-.561-.882-1.309-.882-2.244 0-1.058.328-1.908.986-2.549.614-.598 1.368-.897 2.26-.897.529 0 1.023.168 1.483.504.412.293.684.641.818 1.026.048.134.12.208.217.225.139.027.208.12.208.281 0 .219-.262.406-.786.561l-3.695 1.098c.234 1.272.892 1.908 1.956 1.908.615 0 1.315-.225 2.1-.673.117-.069.232-.104.345-.104.086 0 .129.077.129.232zm-1.9-3.214c0-.293-.119-.551-.356-.774s-.531-.332-.878-.332c-.983 0-1.475.708-1.475 2.124v.192l2.181-.657c.353-.101.529-.286.529-.553z"/><path id="D" d="M140.212 91.923c0 .93-.345 1.717-1.034 2.361s-1.544.966-2.565.966-1.828-.283-2.421-.85c-.572-.556-.858-1.29-.858-2.205a3.08 3.08 0 0 1 1.082-2.389c.7-.625 1.536-.938 2.509-.938 1.042 0 1.855.281 2.437.842.566.545.85 1.283.85 2.212zm-1.411.489c0-.838-.203-1.52-.61-2.044-.395-.508-.897-.762-1.507-.762-.566 0-1.029.199-1.387.598s-.537.883-.537 1.454c0 .919.208 1.642.625 2.148.363.46.921.722 1.507.705.588 0 1.053-.195 1.395-.585s.513-.895.513-1.515z"/></defs></svg>